<?xml version="1.0" encoding="UTF-8"?>
<svg version="1.1" xmlns="http://www.w3.org/2000/svg" width="600" height="600">
<path d="M0 0 C12.43023492 -0.18531657 24.86014159 -0.32748511 37.29147625 -0.41449738 C43.06387286 -0.45625847 48.83532485 -0.51290473 54.60717773 -0.60351562 C60.17692663 -0.69040705 65.7457668 -0.73826719 71.31614113 -0.75901794 C73.44175338 -0.77380611 75.56731555 -0.80268517 77.69254112 -0.84584045 C80.66941323 -0.90388811 83.64252653 -0.91191487 86.61987305 -0.90820312 C87.93941483 -0.95134644 87.93941483 -0.95134644 89.28561401 -0.99536133 C91.76815125 -0.96184774 93.66557361 -0.85179017 96 0 C98.26417161 2.41317863 99.60490731 5.02238993 101 8 C101.64582031 9.0828125 102.29164063 10.165625 102.95703125 11.28125 C106.76267639 17.88304284 110.33961669 24.54479081 113.70703125 31.38012695 C116.82355052 37.69394736 120.05732714 43.94417253 123.3125 50.1875 C123.82844727 51.17999756 124.34439453 52.17249512 124.87597656 53.19506836 C125.36678711 54.13487549 125.85759766 55.07468262 126.36328125 56.04296875 C126.79938721 56.87852295 127.23549316 57.71407715 127.68481445 58.57495117 C129.05256714 61.09692768 130.51443612 63.54591653 132 66 C133.24256894 68.22172391 134.47121888 70.45127663 135.6875 72.6875 C136.62142578 74.39486328 136.62142578 74.39486328 137.57421875 76.13671875 C139 79 139 79 139 81 C139.66 81 140.32 81 141 81 C141.268125 80.154375 141.53625 79.30875 141.8125 78.4375 C143.0478595 74.86145933 144.476988 71.46139092 146 68 C146.66 68 147.32 68 148 68 C148.33 66.02 148.66 64.04 149 62 C149.66 62 150.32 62 151 62 C151.268125 61.13375 151.53625 60.2675 151.8125 59.375 C154.92134831 50.53932584 154.92134831 50.53932584 158 49 C158.69215396 47.00867699 159.3548566 45.0070462 160 43 C160.89551813 41.201065 161.83717698 39.42446291 162.8203125 37.671875 C163.35527344 36.70765625 163.89023437 35.7434375 164.44140625 34.75 C164.99699219 33.76 165.55257812 32.77 166.125 31.75 C167.23556922 29.7677483 168.34253696 27.78347308 169.4453125 25.796875 C169.93531738 24.92385742 170.42532227 24.05083984 170.93017578 23.15136719 C172.14842053 21.10198098 172.14842053 21.10198098 172 19 C172.66 19 173.32 19 174 19 C174.66 17.02 175.32 15.04 176 13 C178.31 8.71 180.62 4.42 183 0 C249.66 0 316.32 0 385 0 C383.3985685 4.80429451 381.58804412 8.97359592 379.21875 13.390625 C378.84857758 14.08903503 378.47840515 14.78744507 378.09701538 15.50701904 C376.90259419 17.75715163 375.70143344 20.003605 374.5 22.25 C373.68088994 23.79022506 372.86204276 25.33058996 372.04345703 26.87109375 C367.34909527 35.6892939 362.61209482 44.48229342 357.64257812 53.14941406 C355.65535777 56.36971412 355.65535777 56.36971412 355 60 C354.34 60 353.68 60 353 60 C352.64421875 61.21429688 352.64421875 61.21429688 352.28125 62.453125 C350.71811165 66.78034946 348.67276153 70.70297133 346.5 74.75 C346.09652344 75.51699219 345.69304687 76.28398437 345.27734375 77.07421875 C342.26051457 82.73948543 342.26051457 82.73948543 340 85 C337.37912085 85.19320619 334.86434532 85.2604849 332.24264526 85.24050903 C331.43239305 85.24221788 330.62214083 85.24392673 329.78733552 85.24568737 C327.05719127 85.24899623 324.32728978 85.23795573 321.59716797 85.22705078 C319.64615891 85.22648697 317.69514943 85.22680264 315.74414062 85.22793579 C310.43447416 85.22851147 305.12489738 85.21672238 299.81525183 85.20278788 C294.27121779 85.19031633 288.72718188 85.18911285 283.18313599 85.18673706 C272.67880678 85.18051175 262.17451902 85.16408675 251.6702081 85.14403808 C239.71392582 85.12171173 227.7576416 85.11069388 215.80134368 85.10064721 C191.20087277 85.07972141 166.60043871 85.04452506 142 85 C142.5775 86.05960937 143.155 87.11921875 143.75 88.2109375 C144.50021788 89.59884058 145.25020601 90.98686787 146 92.375 C146.57234375 93.42300781 146.57234375 93.42300781 147.15625 94.4921875 C150 99.7734375 150 99.7734375 150 102 C150.66 102.33 151.32 102.66 152 103 C153.19295357 105.21155239 154.29694723 107.4203422 155.375 109.6875 C158.75473928 116.62511182 162.34962032 123.42264481 166.0625 130.1875 C166.83327881 131.5940686 166.83327881 131.5940686 167.61962891 133.02905273 C169.48336265 136.42620431 171.3507761 139.82131698 173.22021484 143.21533203 C174.23379819 145.0582516 175.24253211 146.90373289 176.25 148.75 C176.79140625 149.73484375 177.3328125 150.7196875 177.890625 151.734375 C179 154 179 154 179 156 C179.66 156.33 180.32 156.66 181 157 C182.27672422 159.35200848 183.46504457 161.69878629 184.62109375 164.109375 C185.3421337 165.58209275 186.06466393 167.05408166 186.78857422 168.52539062 C187.15682312 169.27506104 187.52507202 170.02473145 187.90447998 170.79711914 C189.54020418 174.08624709 191.24779355 177.33505065 192.97265625 180.578125 C193.4679055 181.50998123 193.4679055 181.50998123 193.97315979 182.46066284 C195.00123128 184.39135841 196.03170935 186.320755 197.0625 188.25 C197.798048 189.62965872 198.5334786 191.00938003 199.26879883 192.38916016 C200.77004114 195.20511254 202.27269448 198.02030566 203.77636719 200.83496094 C205.58578281 204.22255507 207.39064583 207.61254583 209.19367981 211.00354004 C210.53789862 213.53061024 211.88446324 216.05642493 213.23165894 218.58190918 C214.15666565 220.31715693 215.07946972 222.05357828 216.00219727 223.79003906 C219.1193574 229.62188944 222.34143807 235.34439166 225.8293457 240.96337891 C227 243 227 243 228 246 C228.97918825 247.76782501 229.98727399 249.51972914 231.01171875 251.26171875 C231.60404297 252.29876953 232.19636719 253.33582031 232.80664062 254.40429688 C234.05505735 256.58351652 235.32061177 258.75301227 236.60351562 260.91210938 C241.63155065 269.82819777 241.63155065 269.82819777 240.58203125 274.58203125 C239 278 239 278 237.58447266 279.37451172 C235.50845068 281.50427355 234.41071626 283.77374259 233.06640625 286.42578125 C232.50630859 287.52092041 231.94621094 288.61605957 231.36914062 289.74438477 C230.47485352 291.51060181 230.47485352 291.51060181 229.5625 293.3125 C228.29668235 295.7883704 227.02575035 298.26159586 225.75390625 300.734375 C225.43507477 301.35510391 225.11624329 301.97583282 224.78775024 302.6153717 C221.94129776 308.14399704 218.9944321 313.61294873 216 319.0625 C215.52731689 319.92431885 215.05463379 320.7861377 214.56762695 321.67407227 C213.58380279 323.46729069 212.59966472 325.26033693 211.61523438 327.05322266 C208.80044525 332.18842591 205.9985216 337.33046761 203.20996094 342.47994995 C202.26547113 344.22147314 201.31636656 345.96049103 200.3671875 347.69946289 C199.79742187 348.75254639 199.22765625 349.80562988 198.640625 350.890625 C198.13047852 351.82938477 197.62033203 352.76814453 197.09472656 353.73535156 C195.85492804 355.88088129 195.85492804 355.88088129 196 358 C194.68 358.33 193.36 358.66 192 359 C187.21452382 350.59430543 182.49366423 342.15758665 177.9375 333.625 C177.34690796 332.52877319 177.34690796 332.52877319 176.74438477 331.41040039 C174 326.23637921 174 326.23637921 174 324 C173.34 324 172.68 324 172 324 C171.80664062 323.36191406 171.61328125 322.72382813 171.4140625 322.06640625 C171.15367187 321.24011719 170.89328125 320.41382813 170.625 319.5625 C170.36976563 318.73878906 170.11453125 317.91507812 169.8515625 317.06640625 C169.19117773 314.82201984 169.19117773 314.82201984 167 314 C166.06238879 312.38901347 165.19608599 310.73588285 164.375 309.0625 C163.92898438 308.16660156 163.48296875 307.27070313 163.0234375 306.34765625 C162 304 162 304 162 302 C161.34 301.67 160.68 301.34 160 301 C158.70205283 298.60103557 157.49016635 296.20722448 156.3125 293.75 C153.12777642 287.22013932 149.78023268 280.82782933 146.25 274.4765625 C145 272 145 272 145 270 C144.34 269.67 143.68 269.34 143 269 C141.86798034 266.91371583 140.82947221 264.82975782 139.8125 262.6875 C135.97558994 254.81724478 131.8946768 247.08687956 127.75 239.375 C127.26583115 238.47349213 127.26583115 238.47349213 126.7718811 237.55377197 C121.422018 227.59785388 116.02041416 217.67028619 110.59765625 207.75390625 C98 184.71544438 98 184.71544438 98 182 C97.34 181.67 96.68 181.34 96 181 C95.00847501 179.10517894 94.02552868 177.20511075 93.09765625 175.27832031 C91.3236589 171.596171 89.4038774 167.99124508 87.5 164.375 C87.07710693 163.57102783 86.65421387 162.76705566 86.21850586 161.9387207 C82.22791881 154.38053871 78.13897909 146.87698621 74.0234375 139.38623047 C67 126.58446218 67 126.58446218 67 124 C66.34 123.67 65.68 123.34 65 123 C63.68167359 120.55931463 62.44854846 118.12362569 61.25 115.625 C60.53017357 114.15419924 59.80881269 112.68414849 59.0859375 111.21484375 C58.73112305 110.49280762 58.37630859 109.77077148 58.01074219 109.02685547 C55.29045149 103.57181842 52.27039267 98.27272083 49.296875 92.953125 C48.74515625 91.95796875 48.1934375 90.9628125 47.625 89.9375 C47.12226563 89.03902344 46.61953125 88.14054687 46.1015625 87.21484375 C45 85 45 85 45 83 C44.01 83 43.02 83 42 83 C41.8453125 81.6696875 41.8453125 81.6696875 41.6875 80.3125 C40.98527954 76.92907415 39.8403423 74.88053577 38 72 C38 71.34 38 70.68 38 70 C37.01 69.505 37.01 69.505 36 69 C34.82384754 66.85143802 33.74294625 64.70757873 32.6875 62.5 C31.9693574 61.03291792 31.24916393 59.56683866 30.52734375 58.1015625 C30.12757324 57.28977539 29.72780273 56.47798828 29.31591797 55.64160156 C22.16438729 41.28546762 14.60589802 27.12798872 6.87011719 13.07958984 C6.40508789 12.23477051 5.94005859 11.38995117 5.4609375 10.51953125 C4.85451416 9.42282104 4.85451416 9.42282104 4.23583984 8.30395508 C2.76607705 5.56390144 1.38639785 2.78301058 0 0 Z " fill="#F0DAD4" transform="translate(107,120)"/>
<path d="M0 0 C1.34664986 0.01441132 1.34664986 0.01441132 2.72050476 0.02911377 C5.69110917 0.06212295 8.66156739 0.10244809 11.63208008 0.14282227 C13.69044986 0.1671215 15.74882506 0.19096516 17.8072052 0.21437073 C23.22746963 0.27723119 28.64763814 0.34629235 34.06781006 0.41662598 C39.59765247 0.48729165 45.12756294 0.5521192 50.6574707 0.61743164 C61.50975904 0.74646929 72.36195503 0.8820548 83.21411133 1.02172852 C81.900004 5.0788283 80.44989805 8.7002315 78.38598633 12.43579102 C77.83297852 13.44512695 77.2799707 14.45446289 76.71020508 15.49438477 C76.13399414 16.5346582 75.5577832 17.57493164 74.96411133 18.64672852 C71.05385749 25.73911996 67.26720865 32.86064834 63.67456055 40.11938477 C61.36361892 44.71190801 58.88534204 49.20849463 56.40161133 53.70922852 C52.25356748 61.26542637 48.15486581 68.8430865 44.15625 76.47949219 C43.18383726 78.33144812 42.19989445 80.17686323 41.21411133 82.02172852 C40.87379883 82.67802246 40.53348633 83.33431641 40.18286133 84.01049805 C37.55404092 88.90841865 37.55404092 88.90841865 34.21411133 90.02172852 C32.37395635 86.73383072 30.54316085 83.44081525 28.71411133 80.14672852 C28.18946289 79.20958008 27.66481445 78.27243164 27.12426758 77.30688477 C26.62797852 76.41098633 26.13168945 75.51508789 25.62036133 74.59204102 C25.15952148 73.76462402 24.69868164 72.93720703 24.22387695 72.0847168 C23.21411133 70.02172852 23.21411133 70.02172852 23.21411133 68.02172852 C22.22411133 67.52672852 22.22411133 67.52672852 21.21411133 67.02172852 C19.95771238 64.71144787 18.79108775 62.4063738 17.65551758 60.03735352 C16.93584686 58.56720708 16.21460119 57.09783079 15.49194336 55.62915039 C15.11741028 54.86691162 14.7428772 54.10467285 14.35699463 53.31933594 C11.44881449 47.47284552 8.36369891 41.71604265 5.3046875 35.94750977 C4.14560868 33.76040191 2.99125618 31.57084295 1.8371582 29.38110352 C1.07675267 27.94325313 0.31569406 26.50574792 -0.44604492 25.06860352 C-0.81267242 24.37665894 -1.17929993 23.68471436 -1.55703735 22.97180176 C-4.38233614 17.68183361 -7.4040916 12.54399898 -10.56884766 7.44848633 C-11.78588867 5.02172852 -11.78588867 5.02172852 -11.78588867 1.02172852 C-7.83998036 -0.29357425 -4.10891973 -0.06261949 0 0 Z " fill="#F0DAD4" transform="translate(338.785888671875,249.978271484375)"/>
<path d="" fill="#E9DBD6" transform="translate(0,0)"/>
<path d="M0 0 C2 1 2 1 2 1 Z " fill="#E5D0CA" transform="translate(314,462)"/>
<path d="M0 0 C2 1 2 1 2 1 Z " fill="#E4CFC9" transform="translate(325,443)"/>
<path d="M0 0 C2 1 2 1 2 1 Z " fill="#E4CEC8" transform="translate(266,425)"/>
<path d="" fill="#E1D0CA" transform="translate(0,0)"/>
<path d="" fill="#E8D2CD" transform="translate(0,0)"/>
<path d="M0 0 C2 1 2 1 2 1 Z " fill="#DFCDC7" transform="translate(413,273)"/>
<path d="M0 0 C2 1 2 1 2 1 Z " fill="#E5D0CA" transform="translate(323,250)"/>
<path d="M0 0 C2 1 2 1 2 1 Z " fill="#E5CFCA" transform="translate(249,186)"/>
<path d="" fill="#E4CFCA" transform="translate(0,0)"/>
<path d="M0 0 C2 1 2 1 2 1 Z " fill="#E8D9D3" transform="translate(477,150)"/>
<path d="M0 0 C2 1 2 1 2 1 Z " fill="#DDC8C3" transform="translate(219,144)"/>
<path d="" fill="#F0E1DC" transform="translate(0,0)"/>
<path d="" fill="#DAC6C1" transform="translate(0,0)"/>
<path d="" fill="#DAC6C1" transform="translate(0,0)"/>
<path d="" fill="#EADAD4" transform="translate(0,0)"/>
<path d="" fill="#DAC6C1" transform="translate(0,0)"/>
<path d="" fill="#E3D5D0" transform="translate(0,0)"/>
<path d="" fill="#DBC6C1" transform="translate(0,0)"/>
<path d="" fill="#DBC7C1" transform="translate(0,0)"/>
<path d="" fill="#EADBD5" transform="translate(0,0)"/>
<path d="" fill="#E8D2CD" transform="translate(0,0)"/>
<path d="" fill="#E5CFCA" transform="translate(0,0)"/>
<path d="" fill="#E8D2CD" transform="translate(0,0)"/>
<path d="" fill="#E6D6D2" transform="translate(0,0)"/>
<path d="" fill="#E9D9D4" transform="translate(0,0)"/>
<path d="" fill="#F3E1DB" transform="translate(0,0)"/>
<path d="" fill="#DBC7C1" transform="translate(0,0)"/>
<path d="" fill="#DBC7C1" transform="translate(0,0)"/>
<path d="" fill="#DBC7C1" transform="translate(0,0)"/>
<path d="" fill="#EADAD5" transform="translate(0,0)"/>
<path d="" fill="#DBC6C1" transform="translate(0,0)"/>
<path d="" fill="#F1E3DC" transform="translate(0,0)"/>
<path d="" fill="#F1E1DC" transform="translate(0,0)"/>
<path d="" fill="#E8D9D4" transform="translate(0,0)"/>
<path d="" fill="#DBC6C1" transform="translate(0,0)"/>
<path d="" fill="#DBC7C1" transform="translate(0,0)"/>
<path d="" fill="#ECDED8" transform="translate(0,0)"/>
<path d="" fill="#E6CDC7" transform="translate(0,0)"/>
<path d="" fill="#F1E4DF" transform="translate(0,0)"/>
<path d="" fill="#D1BEB7" transform="translate(0,0)"/>
<path d="" fill="#EDDCD6" transform="translate(0,0)"/>
<path d="" fill="#D9C6C0" transform="translate(0,0)"/>
<path d="" fill="#E7DDD8" transform="translate(0,0)"/>
<path d="" fill="#E8D2CD" transform="translate(0,0)"/>
<path d="" fill="#ECD4CE" transform="translate(0,0)"/>
<path d="" fill="#E5CFCA" transform="translate(0,0)"/>
<path d="" fill="#DBC7C1" transform="translate(0,0)"/>
<path d="" fill="#E8D3CD" transform="translate(0,0)"/>
<path d="" fill="#E3CEC9" transform="translate(0,0)"/>
<path d="" fill="#EDDDD7" transform="translate(0,0)"/>
<path d="" fill="#E3CEC9" transform="translate(0,0)"/>
<path d="" fill="#EED7D1" transform="translate(0,0)"/>
<path d="" fill="#DAC6C1" transform="translate(0,0)"/>
<path d="" fill="#EADCD7" transform="translate(0,0)"/>
<path d="" fill="#EDDDD8" transform="translate(0,0)"/>
<path d="" fill="#E3D6D1" transform="translate(0,0)"/>
<path d="" fill="#ECDCD6" transform="translate(0,0)"/>
<path d="" fill="#DAC6C1" transform="translate(0,0)"/>
<path d="" fill="#EAD9D3" transform="translate(0,0)"/>
<path d="" fill="#E8D2CD" transform="translate(0,0)"/>
<path d="" fill="#F6EAE4" transform="translate(0,0)"/>
<path d="" fill="#EDD7D1" transform="translate(0,0)"/>
<path d="" fill="#EED7D1" transform="translate(0,0)"/>
<path d="" fill="#EADAD6" transform="translate(0,0)"/>
<path d="" fill="#EADBD5" transform="translate(0,0)"/>
<path d="" fill="#E9D8D2" transform="translate(0,0)"/>
<path d="" fill="#E5CFCA" transform="translate(0,0)"/>
<path d="" fill="#E8D2CD" transform="translate(0,0)"/>
<path d="" fill="#E8D2CD" transform="translate(0,0)"/>
<path d="" fill="#E8D2CD" transform="translate(0,0)"/>
<path d="" fill="#DDC8C3" transform="translate(0,0)"/>
<path d="" fill="#F4E3DE" transform="translate(0,0)"/>
<path d="" fill="#DAC6C1" transform="translate(0,0)"/>
<path d="" fill="#EFE0DB" transform="translate(0,0)"/>
<path d="" fill="#E5D8D2" transform="translate(0,0)"/>
<path d="" fill="#ECD5CF" transform="translate(0,0)"/>
<path d="" fill="#EAD4CE" transform="translate(0,0)"/>
<path d="" fill="#E3CFC9" transform="translate(0,0)"/>
<path d="" fill="#EAD4CE" transform="translate(0,0)"/>
<path d="" fill="#F0E1DA" transform="translate(0,0)"/>
<path d="" fill="#E8D2CD" transform="translate(0,0)"/>
<path d="" fill="#EAD4CE" transform="translate(0,0)"/>
<path d="" fill="#ECDBD7" transform="translate(0,0)"/>
<path d="" fill="#E8D2CD" transform="translate(0,0)"/>
<path d="" fill="#DAC6C1" transform="translate(0,0)"/>
<path d="" fill="#EAD9D4" transform="translate(0,0)"/>
<path d="" fill="#E0D3CD" transform="translate(0,0)"/>
<path d="" fill="#E5CEC8" transform="translate(0,0)"/>
<path d="" fill="#EBD5CF" transform="translate(0,0)"/>
<path d="" fill="#DBC7C1" transform="translate(0,0)"/>
<path d="" fill="#E7D2CC" transform="translate(0,0)"/>
<path d="" fill="#EBDBD4" transform="translate(0,0)"/>
<path d="" fill="#E7D8D2" transform="translate(0,0)"/>
<path d="" fill="#E8D2CD" transform="translate(0,0)"/>
<path d="" fill="#EADAD6" transform="translate(0,0)"/>
<path d="" fill="#E7D9D3" transform="translate(0,0)"/>
<path d="" fill="#F0E3DE" transform="translate(0,0)"/>
<path d="" fill="#DAC6C1" transform="translate(0,0)"/>
<path d="" fill="#E5CFCA" transform="translate(0,0)"/>
<path d="" fill="#DBC7C1" transform="translate(0,0)"/>
<path d="" fill="#EADDD8" transform="translate(0,0)"/>
<path d="" fill="#DAC6C1" transform="translate(0,0)"/>
<path d="" fill="#DBC7C1" transform="translate(0,0)"/>
<path d="" fill="#F7EEEA" transform="translate(0,0)"/>
<path d="" fill="#ECD6D0" transform="translate(0,0)"/>
<path d="" fill="#E7D6D1" transform="translate(0,0)"/>
<path d="" fill="#DAC6C1" transform="translate(0,0)"/>
<path d="" fill="#DAC6C1" transform="translate(0,0)"/>
<path d="" fill="#DBC7C1" transform="translate(0,0)"/>
<path d="" fill="#EAD2CC" transform="translate(0,0)"/>
<path d="" fill="#F4E1DC" transform="translate(0,0)"/>
<path d="" fill="#EAD4CE" transform="translate(0,0)"/>
<path d="" fill="#E3D7D1" transform="translate(0,0)"/>
<path d="" fill="#EAD4CE" transform="translate(0,0)"/>
<path d="" fill="#EAD4CE" transform="translate(0,0)"/>
<path d="" fill="#E5CFCA" transform="translate(0,0)"/>
<path d="" fill="#E8D3CD" transform="translate(0,0)"/>
<path d="" fill="#EED7D1" transform="translate(0,0)"/>
<path d="" fill="#E5CFCA" transform="translate(0,0)"/>
<path d="" fill="#DBC7C1" transform="translate(0,0)"/>
<path d="" fill="#E5CFCA" transform="translate(0,0)"/>
<path d="" fill="#DBC7C1" transform="translate(0,0)"/>
<path d="" fill="#DBC7C1" transform="translate(0,0)"/>
<path d="" fill="#DBC7C1" transform="translate(0,0)"/>
<path d="" fill="#E6D7D1" transform="translate(0,0)"/>
<path d="" fill="#E8D2CD" transform="translate(0,0)"/>
<path d="" fill="#FAE8E1" transform="translate(0,0)"/>
<path d="" fill="#F4E2DD" transform="translate(0,0)"/>
<path d="" fill="#F0E0DA" transform="translate(0,0)"/>
<path d="" fill="#F6EBE6" transform="translate(0,0)"/>
<path d="" fill="#EED8D2" transform="translate(0,0)"/>
<path d="" fill="#E5CFCA" transform="translate(0,0)"/>
<path d="" fill="#EAD4CE" transform="translate(0,0)"/>
<path d="" fill="#ECDBD6" transform="translate(0,0)"/>
<path d="" fill="#DBC7C1" transform="translate(0,0)"/>
<path d="" fill="#DBC7C1" transform="translate(0,0)"/>
<path d="" fill="#E5CFCA" transform="translate(0,0)"/>
<path d="" fill="#DCC4BF" transform="translate(0,0)"/>
<path d="" fill="#EDDED8" transform="translate(0,0)"/>
<path d="" fill="#EBDCD8" transform="translate(0,0)"/>
<path d="" fill="#E5CFCA" transform="translate(0,0)"/>
<path d="" fill="#DBC7C1" transform="translate(0,0)"/>
<path d="" fill="#E9DCD7" transform="translate(0,0)"/>
<path d="" fill="#EADAD4" transform="translate(0,0)"/>
<path d="" fill="#EBD3CD" transform="translate(0,0)"/>
<path d="" fill="#E5D7D2" transform="translate(0,0)"/>
<path d="" fill="#EEDCD7" transform="translate(0,0)"/>
<path d="" fill="#F8ECE6" transform="translate(0,0)"/>
<path d="" fill="#EDD7D1" transform="translate(0,0)"/>
<path d="" fill="#DBC7C1" transform="translate(0,0)"/>
<path d="" fill="#DBC7C1" transform="translate(0,0)"/>
<path d="" fill="#E4CFCA" transform="translate(0,0)"/>
<path d="" fill="#E9DAD4" transform="translate(0,0)"/>
<path d="" fill="#E4CFC9" transform="translate(0,0)"/>
<path d="" fill="#E4CFCA" transform="translate(0,0)"/>
<path d="" fill="#E9D9D3" transform="translate(0,0)"/>
<path d="" fill="#F6E8E2" transform="translate(0,0)"/>
<path d="" fill="#E9DAD4" transform="translate(0,0)"/>
<path d="" fill="#EDDDD8" transform="translate(0,0)"/>
<path d="" fill="#DBC6C1" transform="translate(0,0)"/>
<path d="" fill="#E4CFC9" transform="translate(0,0)"/>
<path d="" fill="#E8D8D2" transform="translate(0,0)"/>
<path d="" fill="#E4CFC9" transform="translate(0,0)"/>
<path d="" fill="#E4CFC9" transform="translate(0,0)"/>
<path d="" fill="#E2CDC7" transform="translate(0,0)"/>
<path d="" fill="#EAD4CE" transform="translate(0,0)"/>
<path d="" fill="#EFE1DA" transform="translate(0,0)"/>
<path d="" fill="#E4D4CF" transform="translate(0,0)"/>
<path d="" fill="#E4CFCA" transform="translate(0,0)"/>
<path d="" fill="#EAD4CE" transform="translate(0,0)"/>
<path d="" fill="#EDD7D1" transform="translate(0,0)"/>
<path d="" fill="#EDD6D0" transform="translate(0,0)"/>
<path d="" fill="#E2D6D1" transform="translate(0,0)"/>
<path d="" fill="#EBDCD5" transform="translate(0,0)"/>
<path d="" fill="#E4CFC9" transform="translate(0,0)"/>
<path d="" fill="#E9D1CB" transform="translate(0,0)"/>
<path d="" fill="#F9F2EC" transform="translate(0,0)"/>
<path d="" fill="#DAC3BD" transform="translate(0,0)"/>
<path d="" fill="#DBC7C1" transform="translate(0,0)"/>
<path d="" fill="#E7DDD8" transform="translate(0,0)"/>
<path d="" fill="#E9DED9" transform="translate(0,0)"/>
<path d="" fill="#EADAD4" transform="translate(0,0)"/>
<path d="" fill="#E9DED9" transform="translate(0,0)"/>
<path d="" fill="#DBC7C1" transform="translate(0,0)"/>
<path d="" fill="#E9DDD8" transform="translate(0,0)"/>
</svg>
